<?xml version="1.0" encoding="UTF-8"?>
<svg width="128" height="128" viewBox="0 0 128 128" fill="none" xmlns="http://www.w3.org/2000/svg">
  <!-- Background circle -->
  <circle cx="64" cy="64" r="60" fill="#0052CC" />
  
  <!-- Chat bubble -->
  <path d="M94 46H34C30.6863 46 28 48.6863 28 52V84C28 87.3137 30.6863 90 34 90H50L64 104L78 90H94C97.3137 90 100 87.3137 100 84V52C100 48.6863 97.3137 46 94 46Z" fill="white"/>
  
  <!-- Action items: checkmark, lines -->
  <rect x="42" y="58" width="28" height="4" rx="2" fill="#0052CC"/>
  <rect x="42" y="68" width="44" height="4" rx="2" fill="#0052CC"/>
  <rect x="42" y="78" width="36" height="4" rx="2" fill="#0052CC"/>
  
  <circle cx="78" cy="58" r="8" fill="#36B37E"/>
  <path d="M75 58L77 60L82 55" stroke="white" stroke-width="2" stroke-linecap="round" stroke-linejoin="round"/>
</svg> 